{
  "accessors": [
    {
      "bufferView": 2,
      "componentType": 5126,
      "count": 5456,
      "max": [
        0.14409999549388885,
        0.18900899589061737,
        0.1490750014781952
      ],
      "min": [
        -0.1710759997367859,
        -0.1415500044822693,
        -0.14429999887943268
      ],
      "type": "VEC3"
    },
    {
      "bufferView": 2,
      "byteOffset": 65472,
      "componentType": 5126,
      "count": 5456,
      "max": [
        0.9996556639671326,
        0.9998713731765747,
        0.9983285665512085
      ],
      "min": [
        -0.9998270273208618,
        -0.9999671578407288,
        -0.9987558722496033
      ],
      "type": "VEC3"
    },
    {
      "bufferView": 1,
      "componentType": 5126,
      "count": 5456,
      "max": [
        0.9912571907043457,
        0.9739384055137634
      ],
      "min": [
        0.0024215232115238905,
        0.022020697593688965
      ],
      "type": "VEC2"
    },
    {
      "bufferView": 0,
      "componentType": 5125,
      "count": 23076,
      "type": "SCALAR"
    }
  ],
  "asset": {
    "extras": {
      "author": "miaumio (https://sketchfab.com/miaumio)",
      "license": "CC-BY-4.0 (http://creativecommons.org/licenses/by/4.0/)",
      "source": "https://sketchfab.com/3d-models/abstract-model-7b48e8bba03f48d69397142d83bdd4c7",
      "title": "abstract model"
    },
    "generator": "Sketchfab-12.66.0",
    "version": "2.0"
  },
  "bufferViews": [
    {
      "buffer": 0,
      "byteLength": 92304,
      "name": "floatBufferViews",
      "target": 34963
    },
    {
      "buffer": 0,
      "byteLength": 43648,
      "byteOffset": 92304,
      "byteStride": 8,
      "name": "floatBufferViews",
      "target": 34962
    },
    {
      "buffer": 0,
      "byteLength": 130944,
      "byteOffset": 135952,
      "byteStride": 12,
      "name": "floatBufferViews",
      "target": 34962
    }
  ],
  "buffers": [
    {
      "byteLength": 266896,
      "uri": "scene.bin"
    }
  ],
  "extensionsUsed": [
    "KHR_materials_clearcoat"
  ],
  "materials": [
    {
      "doubleSided": true,
      "extensions": {
        "KHR_materials_clearcoat": {
          "clearcoatFactor": 0.6328825914099059,
          "clearcoatRoughnessFactor": 0.04
        }
      },
      "name": "Default_OBJ.002",
      "pbrMetallicRoughness": {
        "baseColorFactor": [
          1.0,
          0.17901507171454986,
          0.6059796597925045,
          1.0
        ],
        "roughnessFactor": 0.20802734566149297
      }
    }
  ],
  "meshes": [
    {
      "name": "Object_0",
      "primitives": [
        {
          "attributes": {
            "NORMAL": 1,
            "POSITION": 0,
            "TEXCOORD_0": 2
          },
          "indices": 3,
          "material": 0,
          "mode": 4
        }
      ]
    }
  ],
  "nodes": [
    {
      "children": [
        1
      ],
      "matrix": [
        9.955538749694824,
        0.0,
        0.0,
        0.0,
        0.0,
        2.2105736684918274e-15,
        -9.955538749694824,
        0.0,
        0.0,
        9.955538749694824,
        2.2105736684918274e-15,
        0.0,
        0.0,
        0.0,
        0.0,
        1.0
      ],
      "name": "Sketchfab_model"
    },
    {
      "children": [
        2
      ],
      "name": "root"
    },
    {
      "children": [
        3
      ],
      "matrix": [
        1.0,
        0.0,
        0.0,
        0.0,
        0.0,
        2.220446049250313e-16,
        1.0,
        0.0,
        0.0,
        -1.0,
        2.220446049250313e-16,
        0.0,
        0.0,
        0.0,
        0.0,
        1.0
      ],
      "name": "GLTF_SceneRootNode"
    },
    {
      "children": [
        4
      ],
      "matrix": [
        1.0,
        0.0,
        0.0,
        0.0,
        0.0,
        -1.685873969314855e-07,
        0.9999999999999858,
        0.0,
        0.0,
        -0.9999999999999858,
        -1.685873969314855e-07,
        0.0,
        0.0,
        0.0,
        0.0,
        1.0
      ],
      "name": "try2_2"
    },
    {
      "mesh": 0,
      "name": "Object_4"
    }
  ],
  "scene": 0,
  "scenes": [
    {
      "name": "Sketchfab_Scene",
      "nodes": [
        0
      ]
    }
  ]
}
